<svg width="387" height="452" viewBox="0 0 387 452" fill="none" xmlns="http://www.w3.org/2000/svg">
<path d="M363.143 475.303C357.891 432.879 325.06 354.837 235.755 382.064C124.123 416.097 81.5483 452.285 27.3376 297.227C-26.8731 142.17 -53.8447 110.035 -114.635 124.421M324.198 524.995C307.699 460.787 339.352 327.409 214.965 348.466C90.5792 369.523 -59.5138 408.85 -14.74 285.859C30.0338 162.868 3.1172 126.368 -32.1271 110.771M209.793 528.457C296.583 311.743 167.601 408.093 129.355 278.199C91.1092 148.306 52.6229 285.912 -81.337 178.233" stroke="#DCDCDC"/>
<path d="M289.336 495.38C277.15 419.054 281.256 358.24 211.181 290.172C141.106 222.105 80.6533 382.753 -53.53 237.807" stroke="#DCDCDC"/>
</svg>
