<svg width="372" height="404" viewBox="0 0 372 404" fill="none" xmlns="http://www.w3.org/2000/svg">
<path d="M33.5 383.567C91.5 410.233 216.4 429.867 252 295.067C296.5 126.567 284 44.0668 523.5 97.0668C763 150.067 825 141.067 854.5 52.5669M1 295.067C95.5 324.567 240 469.567 311 295.067C382 120.567 450 -100.933 571 52.5669C692 206.067 759.5 200.567 807 168.067M86.5 147.067C293.5 427.567 272.5 188.067 467.5 241.567C662.5 295.067 518 138.067 760 52.5669" stroke="#DCDCDC"/>
<path d="M66 274.067C172.5 318.567 246.5 371.567 388 336.067C529.5 300.567 373 97.5669 662.5 41.0669" stroke="#DCDCDC"/>
</svg>
