<svg width="95" height="95" viewBox="0 0 95 95" fill="none" xmlns="http://www.w3.org/2000/svg">
<circle cx="47.5" cy="47.5" r="47.5" fill="#FEFDF7"/>
<circle cx="47.5" cy="49.0283" r="33" stroke="#E0DFDC"/>
<circle cx="53.1887" cy="16.7925" r="3.79245" fill="#403BDD" fill-opacity="0.94"/>
<circle cx="29.8019" cy="75.5754" r="6.95283" fill="#57A4FF"/>
<path d="M45.1078 45.5C44.5123 43.6583 43.2788 42.0897 41.6295 41.0767C39.9803 40.0636 38.0235 39.6726 36.1116 39.9741C34.1996 40.2756 32.4581 41.2497 31.2006 42.721C29.943 44.1924 29.252 46.0644 29.252 48C29.252 49.9355 29.943 51.8075 31.2006 53.2789C32.4581 54.7502 34.1996 55.7243 36.1116 56.0258C38.0235 56.3273 39.9803 55.9363 41.6295 54.9232C43.2788 53.9102 44.5123 52.3416 45.1078 50.4999H54.25L56.75 48.625L59.25 50.4999L61.75 48.625L64.25 50.4999L66.75 48V45.5H45.1078ZM34.875 49.8749C34.5042 49.8749 34.1417 49.765 33.8333 49.559C33.525 49.3529 33.2847 49.0601 33.1428 48.7175C33.0008 48.3749 32.9637 47.9979 33.0361 47.6342C33.1084 47.2704 33.287 46.9363 33.5492 46.6741C33.8114 46.4119 34.1455 46.2333 34.5092 46.161C34.8729 46.0886 35.2499 46.1258 35.5926 46.2677C35.9352 46.4096 36.228 46.6499 36.434 46.9583C36.6401 47.2666 36.75 47.6291 36.75 48C36.7499 48.4972 36.5523 48.974 36.2007 49.3256C35.8491 49.6772 35.3723 49.8748 34.875 49.8749Z" fill="#57A4FF"/>
<path d="M66.75 44.875H45.55C44.8196 42.9649 43.4433 41.3709 41.66 40.3699C39.8767 39.3689 37.7992 39.0241 35.7882 39.3955C33.7771 39.7668 31.9597 40.8309 30.6515 42.4027C29.3434 43.9746 28.6271 45.955 28.6271 48C28.6271 50.045 29.3434 52.0254 30.6515 53.5973C31.9597 55.1692 33.7771 56.2332 35.7882 56.6045C37.7992 56.9759 39.8767 56.6311 41.66 55.6301C43.4433 54.6291 44.8196 53.0352 45.55 51.125H54.25C54.3853 51.1251 54.5169 51.0812 54.625 51L56.75 49.4063L58.875 51C58.9832 51.081 59.1148 51.1248 59.25 51.1248C59.3852 51.1248 59.5168 51.081 59.625 51L61.75 49.4063L63.875 51C63.9954 51.0902 64.1443 51.1341 64.2944 51.1234C64.4445 51.1128 64.5857 51.0485 64.6922 50.9422L67.1922 48.4422C67.3093 48.3248 67.3751 48.1658 67.375 48V45.5C67.375 45.3343 67.3092 45.1753 67.1919 45.0581C67.0747 44.9409 66.9158 44.875 66.75 44.875ZM66.125 47.7414L64.1914 49.675L62.125 48.125C62.0168 48.044 61.8852 48.0002 61.75 48.0002C61.6148 48.0002 61.4832 48.044 61.375 48.125L59.25 49.7188L57.125 48.125C57.0168 48.044 56.8852 48.0002 56.75 48.0002C56.6148 48.0002 56.4832 48.044 56.375 48.125L54.0414 49.875H45.1078C44.9757 49.875 44.8469 49.9169 44.7401 49.9946C44.6333 50.0724 44.5539 50.1821 44.5133 50.3078C43.9635 52.0078 42.8249 53.4557 41.3025 54.3908C39.7801 55.3259 37.9739 55.6868 36.209 55.4085C34.4442 55.1302 32.8366 54.231 31.6758 52.8728C30.515 51.5146 29.8772 49.7867 29.8772 48C29.8772 46.2134 30.515 44.4854 31.6758 43.1272C32.8366 41.769 34.4442 40.8698 36.209 40.5915C37.9739 40.3133 39.7801 40.6742 41.3025 41.6093C42.8249 42.5444 43.9635 43.9922 44.5133 45.6922C44.5539 45.818 44.6333 45.9276 44.7401 46.0054C44.8469 46.0832 44.9757 46.125 45.1078 46.125H66.125V47.7414Z" fill="#403BDD" fill-opacity="0.94"/>
<path d="M34.875 45.5C34.3805 45.5 33.8972 45.6466 33.4861 45.9213C33.075 46.196 32.7545 46.5865 32.5653 47.0433C32.3761 47.5001 32.3266 48.0028 32.423 48.4877C32.5195 48.9727 32.7576 49.4181 33.1072 49.7678C33.4569 50.1174 33.9023 50.3555 34.3873 50.452C34.8722 50.5484 35.3749 50.4989 35.8317 50.3097C36.2885 50.1205 36.679 49.8001 36.9537 49.3889C37.2284 48.9778 37.375 48.4945 37.375 48C37.3743 47.3372 37.1106 46.7017 36.6419 46.2331C36.1733 45.7644 35.5378 45.5007 34.875 45.5ZM34.875 49.25C34.6278 49.25 34.3861 49.1767 34.1805 49.0393C33.975 48.902 33.8148 48.7068 33.7202 48.4784C33.6255 48.25 33.6008 47.9986 33.649 47.7561C33.6973 47.5137 33.8163 47.2909 33.9911 47.1161C34.1659 46.9413 34.3887 46.8223 34.6311 46.774C34.8736 46.7258 35.1249 46.7505 35.3534 46.8452C35.5818 46.9398 35.777 47.1 35.9143 47.3055C36.0517 47.5111 36.125 47.7528 36.125 48C36.1246 48.3314 35.9928 48.6491 35.7585 48.8835C35.5241 49.1178 35.2064 49.2496 34.875 49.25Z" fill="#403BDD" fill-opacity="0.94"/>
<path d="M44.875 47.375C44.875 47.5408 44.9408 47.6997 45.0581 47.8169C45.1753 47.9342 45.3342 48 45.5 48H52.375C52.5408 48 52.6997 47.9342 52.8169 47.8169C52.9342 47.6997 53 47.5408 53 47.375C53 47.2092 52.9342 47.0503 52.8169 46.9331C52.6997 46.8158 52.5408 46.75 52.375 46.75H45.5C45.3342 46.75 45.1753 46.8158 45.0581 46.9331C44.9408 47.0503 44.875 47.2092 44.875 47.375Z" fill="#403BDD" fill-opacity="0.94"/>
<path d="M54.25 48H54.875C55.0408 48 55.1997 47.9342 55.3169 47.8169C55.4342 47.6997 55.5 47.5408 55.5 47.375C55.5 47.2092 55.4342 47.0503 55.3169 46.9331C55.1997 46.8158 55.0408 46.75 54.875 46.75H54.25C54.0842 46.75 53.9253 46.8158 53.8081 46.9331C53.6908 47.0503 53.625 47.2092 53.625 47.375C53.625 47.5408 53.6908 47.6997 53.8081 47.8169C53.9253 47.9342 54.0842 48 54.25 48Z" fill="#403BDD" fill-opacity="0.94"/>
<path d="M64.875 52.375H56.125C55.9592 52.375 55.8003 52.4408 55.6831 52.5581C55.5658 52.6753 55.5 52.8342 55.5 53C55.5 53.1658 55.5658 53.3247 55.6831 53.4419C55.8003 53.5592 55.9592 53.625 56.125 53.625H64.875C65.0408 53.625 65.1997 53.5592 65.3169 53.4419C65.4342 53.3247 65.5 53.1658 65.5 53C65.5 52.8342 65.4342 52.6753 65.3169 52.5581C65.1997 52.4408 65.0408 52.375 64.875 52.375Z" fill="#403BDD" fill-opacity="0.94"/>
<path d="M64.7969 54.25H56.125C55.9592 54.25 55.8003 54.3158 55.6831 54.4331C55.5658 54.5503 55.5 54.7092 55.5 54.875C55.5 55.0408 55.5658 55.1997 55.6831 55.3169C55.8003 55.4342 55.9592 55.5 56.125 55.5H64.7969C64.9626 55.5 65.1216 55.4342 65.2388 55.3169C65.356 55.1997 65.4219 55.0408 65.4219 54.875C65.4219 54.7092 65.356 54.5503 65.2388 54.4331C65.1216 54.3158 64.9626 54.25 64.7969 54.25Z" fill="#403BDD" fill-opacity="0.94"/>
<path d="M59.875 56.125H56.125C55.9592 56.125 55.8003 56.1908 55.6831 56.3081C55.5658 56.4253 55.5 56.5842 55.5 56.75C55.5 56.9158 55.5658 57.0747 55.6831 57.1919C55.8003 57.3092 55.9592 57.375 56.125 57.375H59.875C60.0408 57.375 60.1997 57.3092 60.3169 57.1919C60.4342 57.0747 60.5 56.9158 60.5 56.75C60.5 56.5842 60.4342 56.4253 60.3169 56.3081C60.1997 56.1908 60.0408 56.125 59.875 56.125Z" fill="#403BDD" fill-opacity="0.94"/>
<path d="M62.375 56.125H61.75C61.5842 56.125 61.4253 56.1908 61.3081 56.3081C61.1908 56.4253 61.125 56.5842 61.125 56.75C61.125 56.9158 61.1908 57.0747 61.3081 57.1919C61.4253 57.3092 61.5842 57.375 61.75 57.375H62.375C62.5408 57.375 62.6997 57.3092 62.8169 57.1919C62.9342 57.0747 63 56.9158 63 56.75C63 56.5842 62.9342 56.4253 62.8169 56.3081C62.6997 56.1908 62.5408 56.125 62.375 56.125Z" fill="#403BDD" fill-opacity="0.94"/>
</svg>
