<svg width="14" height="16" viewBox="0 0 14 16" fill="none" xmlns="http://www.w3.org/2000/svg">
<path d="M6.70874 0.886261C6.73999 0.886261 6.77124 0.888761 6.80499 0.893761C7.23249 0.960011 7.25374 1.55251 7.25374 1.67126V1.68001L7.37874 6.90876C7.38124 7.17251 7.58624 7.38376 7.84999 7.39126H7.86374C8.10999 7.39126 8.31374 7.20501 8.34124 6.95626L8.88874 2.48876C8.88874 2.48626 8.88999 2.48251 8.88999 2.48001C8.92374 2.13376 9.10874 1.78001 9.44624 1.77251H9.46249C9.62249 1.77251 9.75249 1.82626 9.84874 1.93251C9.98499 2.08376 10.0487 2.32626 10.0225 2.59876V2.60501C10.0187 2.65501 9.61999 7.60626 9.49874 8.94501C9.48374 9.11626 9.53749 9.28001 9.65249 9.40626C9.76749 9.53251 9.93124 9.60501 10.1012 9.60501C10.2437 9.60501 10.3837 9.55251 10.4925 9.45751C10.7175 9.26251 10.9487 8.96751 11.1912 8.65501C11.4025 8.38376 11.7575 7.93001 11.9 7.87751C12.1037 7.81876 12.315 7.78751 12.5125 7.78751C12.8912 7.78751 13.1225 7.89626 13.205 7.98751C13.25 8.04626 13.3062 8.32501 13.23 8.56126C13.2012 8.65126 13.1625 8.69876 13.1362 8.70751C12.21 8.99751 10.9337 10.8388 10.4875 11.7138C10.4012 11.8838 10.325 12.0863 10.2462 12.3C10.0362 12.8638 9.77499 13.5663 9.14874 14.1213C8.39624 14.79 7.27874 15.1138 5.73249 15.1138C4.34374 15.1138 3.28374 14.7638 2.57999 14.0725C1.91874 13.4225 1.76999 12.6538 1.73749 12.3538C1.62249 11.305 1.36499 8.75251 1.36249 8.72751C1.36249 8.72501 1.36249 8.72251 1.36124 8.72001L0.878735 4.71376C0.878735 4.70876 0.877485 4.70501 0.877485 4.70001C0.837485 4.44626 0.882485 4.21876 0.999985 4.07751C1.09124 3.96751 1.22624 3.91001 1.39999 3.90626H1.41499C1.52624 3.90626 1.78624 3.90626 1.93249 4.58626L2.43749 6.93626C2.49624 7.21251 2.74499 7.41251 3.02749 7.41251C3.04499 7.41251 3.06249 7.41126 3.07999 7.41001C3.23652 7.39719 3.38179 7.32351 3.48462 7.20479C3.58745 7.08607 3.63964 6.93178 3.62999 6.77501C3.53124 5.02376 3.42499 3.01001 3.42499 2.61126C3.42499 1.84501 3.72499 1.82876 3.90374 1.81876C3.91499 1.81751 3.92749 1.81751 3.93874 1.81751C4.41124 1.81751 4.47999 2.46501 4.48874 2.59501C4.52624 3.12626 4.82624 6.66251 4.84374 6.86751C4.86499 7.18751 5.12499 7.43751 5.43749 7.43751C5.44749 7.43751 5.45749 7.43751 5.47249 7.43626C5.78749 7.42001 6.03499 7.15376 6.03749 6.83001L6.16249 1.64001V1.63126C6.16249 1.40751 6.22374 1.20751 6.33374 1.06876C6.42874 0.948761 6.55624 0.886261 6.70874 0.886261ZM6.70874 0.511261C6.14749 0.511261 5.78374 1.01501 5.78374 1.63626L5.65874 6.82876C5.65874 6.95501 5.56624 7.05876 5.44874 7.06501H5.43374C5.31749 7.06501 5.22124 6.96751 5.21374 6.84251C5.21374 6.84251 4.89624 3.11001 4.85874 2.57251C4.82249 2.04876 4.55874 1.44626 3.93499 1.44626C3.91749 1.44626 3.89874 1.44626 3.87999 1.44751C3.21624 1.48376 3.04624 2.01251 3.04624 2.61376C3.04624 3.12751 3.20624 5.97751 3.25249 6.79876C3.25999 6.92251 3.16749 7.02876 3.04374 7.03876C3.03749 7.03876 3.02999 7.04001 3.02374 7.04001C2.91749 7.04001 2.82374 6.96501 2.79999 6.86001L2.29499 4.51001C2.17249 3.93626 1.91874 3.53376 1.41124 3.53376H1.38624C0.732485 3.55001 0.398735 4.09376 0.503735 4.76001L0.986235 8.76626C0.986235 8.76626 1.24499 11.3338 1.36124 12.3963C1.47749 13.4588 2.32874 15.49 5.72874 15.49C10.1162 15.49 10.3087 12.8825 10.8175 11.885C11.2912 10.9563 12.5125 9.29626 13.245 9.06626C13.7187 8.91751 13.7212 8.00626 13.4812 7.74001C13.295 7.53376 12.935 7.41376 12.5087 7.41376C12.2837 7.41376 12.0387 7.44751 11.7925 7.51876C11.3737 7.64001 10.7275 8.75626 10.2437 9.17501C10.1987 9.21376 10.1475 9.23126 10.0975 9.23126C9.97249 9.23126 9.85499 9.12626 9.86874 8.98126C9.99249 7.62501 10.3937 2.63751 10.3937 2.63751C10.4587 1.97376 10.1075 1.40001 9.46124 1.40001H9.43624C8.91124 1.41126 8.57124 1.88501 8.51499 2.44626L7.96749 6.91751C7.96124 6.97626 7.91624 7.02001 7.86249 7.02001H7.85749C7.79999 7.01876 7.75374 6.96751 7.75374 6.90626L7.62874 1.67376C7.62874 1.11001 7.38124 0.606261 6.86249 0.526261C6.80999 0.515011 6.75874 0.511261 6.70874 0.511261Z" fill="#EDA600"/>
</svg>
