<svg width="95" height="95" viewBox="0 0 95 95" fill="none" xmlns="http://www.w3.org/2000/svg">
<circle cx="47.5" cy="47.5" r="47.5" fill="#FEFDF7"/>
<circle cx="47.5" cy="49.0283" r="33" stroke="#E0DFDC"/>
<circle cx="14" cy="44" r="6" fill="#403BDD" fill-opacity="0.94"/>
<circle cx="61" cy="79" r="4" fill="#403BDD"/>
<path d="M47 66.7499C47.6904 66.7499 48.25 66.1903 48.25 65.4999C48.25 64.8096 47.6904 64.2499 47 64.2499C46.3096 64.2499 45.75 64.8096 45.75 65.4999C45.75 66.1903 46.3096 66.7499 47 66.7499Z" fill="#57A4FF"/>
<path d="M37.5469 62.3749C38.2372 62.3749 38.7969 61.8153 38.7969 61.1249C38.7969 60.4346 38.2372 59.8749 37.5469 59.8749C36.8565 59.8749 36.2969 60.4346 36.2969 61.1249C36.2969 61.8153 36.8565 62.3749 37.5469 62.3749Z" fill="#57A4FF"/>
<path d="M56.4531 66.7499C57.1435 66.7499 57.7031 66.1903 57.7031 65.4999C57.7031 64.8096 57.1435 64.2499 56.4531 64.2499C55.7628 64.2499 55.2031 64.8096 55.2031 65.4999C55.2031 66.1903 55.7628 66.7499 56.4531 66.7499Z" fill="#57A4FF"/>
<path d="M58.1 35.5132C57.1998 33.2549 55.573 31.3609 53.4765 30.1301C51.38 28.8993 48.9332 28.402 46.5226 28.7166C44.1119 29.0312 41.8748 30.1399 40.1644 31.8675C38.454 33.5951 37.3678 35.8433 37.0774 38.257C35.5006 37.8321 33.8283 37.9334 32.3144 38.5454C30.8005 39.1575 29.5276 40.2468 28.6892 41.6481C27.8508 43.0494 27.4925 44.686 27.6689 46.3094C27.8453 47.9329 28.5466 49.4544 29.6664 50.6429C29.7008 50.6804 29.736 50.7171 29.768 50.7492C30.4644 51.4643 31.2975 52.0321 32.2178 52.4188C33.1381 52.8055 34.1268 53.0031 35.125 52.9999H42V60.4999H39.3141C39.1666 60.0829 38.8765 59.7315 38.495 59.5077C38.1135 59.2839 37.6652 59.2021 37.2292 59.2769C36.7933 59.3517 36.3979 59.5782 36.1128 59.9164C35.8277 60.2546 35.6713 60.6826 35.6713 61.1249C35.6713 61.5672 35.8277 61.9953 36.1128 62.3335C36.3979 62.6716 36.7933 62.8981 37.2292 62.9729C37.6652 63.0477 38.1135 62.966 38.495 62.7422C38.8765 62.5184 39.1666 62.1669 39.3141 61.7499H42.625C42.7908 61.7499 42.9497 61.6841 43.067 61.5669C43.1842 61.4497 43.25 61.2907 43.25 61.1249V52.9999H46.375V63.7327C45.958 63.8802 45.6065 64.1703 45.3827 64.5518C45.1589 64.9333 45.0772 65.3816 45.152 65.8176C45.2268 66.2535 45.4533 66.649 45.7915 66.9341C46.1296 67.2192 46.5577 67.3755 47 67.3755C47.4423 67.3755 47.8704 67.2192 48.2086 66.9341C48.5467 66.649 48.7732 66.2535 48.848 65.8176C48.9228 65.3816 48.8411 64.9333 48.6173 64.5518C48.3935 64.1703 48.042 63.8802 47.625 63.7327V52.9999H50.75V65.4999C50.75 65.6657 50.8159 65.8247 50.9331 65.9419C51.0503 66.0591 51.2093 66.1249 51.375 66.1249H54.686C54.8334 66.5419 55.1235 66.8934 55.505 67.1172C55.8865 67.341 56.3349 67.4227 56.7708 67.3479C57.2067 67.2731 57.6022 67.0466 57.8873 66.7085C58.1724 66.3703 58.3287 65.9422 58.3287 65.4999C58.3287 65.0576 58.1724 64.6296 57.8873 64.2914C57.6022 63.9532 57.2067 63.7267 56.7708 63.6519C56.3349 63.5771 55.8865 63.6589 55.505 63.8827C55.1235 64.1065 54.8334 64.4579 54.686 64.8749H52V52.9999H57.625C59.9456 52.9996 62.171 52.0777 63.8119 50.4368C65.4528 48.7959 66.3747 46.5705 66.375 44.2499C66.375 39.5929 62.7016 35.7609 58.1 35.5132ZM37.5469 61.7499C37.4233 61.7499 37.3024 61.7133 37.1997 61.6446C37.0969 61.5759 37.0168 61.4783 36.9695 61.3641C36.9222 61.2499 36.9098 61.1242 36.9339 61.003C36.958 60.8818 37.0175 60.7704 37.1049 60.683C37.1924 60.5956 37.3037 60.5361 37.425 60.5119C37.5462 60.4878 37.6719 60.5002 37.7861 60.5475C37.9003 60.5948 37.9979 60.6749 38.0666 60.7777C38.1352 60.8805 38.1719 61.0013 38.1719 61.1249C38.1717 61.2906 38.1057 61.4495 37.9886 61.5666C37.8714 61.6838 37.7126 61.7497 37.5469 61.7499ZM56.4531 64.8749C56.5768 64.8749 56.6976 64.9116 56.8004 64.9803C56.9032 65.0489 56.9833 65.1466 57.0306 65.2608C57.0779 65.375 57.0902 65.5006 57.0661 65.6219C57.042 65.7431 56.9825 65.8545 56.8951 65.9419C56.8077 66.0293 56.6963 66.0888 56.5751 66.1129C56.4538 66.137 56.3282 66.1247 56.214 66.0774C56.0998 66.0301 56.0021 65.9499 55.9335 65.8472C55.8648 65.7444 55.8281 65.6235 55.8281 65.4999C55.8284 65.3342 55.8943 65.1754 56.0115 65.0582C56.1286 64.9411 56.2875 64.8752 56.4531 64.8749ZM47 66.1249C46.8764 66.1249 46.7556 66.0883 46.6528 66.0196C46.55 65.9509 46.4699 65.8533 46.4226 65.7391C46.3753 65.6249 46.3629 65.4992 46.387 65.378C46.4111 65.2568 46.4707 65.1454 46.5581 65.058C46.6455 64.9706 46.7568 64.9111 46.8781 64.8869C46.9993 64.8628 47.125 64.8752 47.2392 64.9225C47.3534 64.9698 47.451 65.0499 47.5197 65.1527C47.5884 65.2555 47.625 65.3763 47.625 65.4999C47.6248 65.6656 47.5589 65.8245 47.4417 65.9416C47.3245 66.0588 47.1657 66.1247 47 66.1249ZM62.8172 49.6617C61.4229 51.0049 59.5611 51.7537 57.625 51.7499H35.125C34.2921 51.7523 33.4672 51.587 32.6995 51.2639C31.9318 50.9409 31.2369 50.4666 30.6563 49.8695C30.6313 49.8452 30.607 49.8195 30.5797 49.7898C29.6057 48.7571 29.0122 47.4236 28.8969 46.0088C28.7815 44.5939 29.1512 43.1819 29.945 42.0051C30.7389 40.8283 31.9096 39.9567 33.2647 39.5338C34.6198 39.1108 36.0785 39.1617 37.4008 39.6781C37.4935 39.7156 37.5939 39.7303 37.6935 39.721C37.7931 39.7117 37.889 39.6786 37.9732 39.6246C38.0574 39.5706 38.1274 39.4972 38.1773 39.4105C38.2272 39.3238 38.2557 39.2264 38.2602 39.1265C38.3616 36.8809 39.2408 34.7404 40.747 33.0718C42.2532 31.4032 44.2927 30.3102 46.5163 29.9801C48.7398 29.65 51.0089 30.1033 52.9349 31.2624C54.861 32.4215 56.324 34.2142 57.0735 36.3335C57.1163 36.455 57.1955 36.5602 57.3004 36.6349C57.4053 36.7095 57.5306 36.75 57.6594 36.7507C59.6411 36.7639 61.5375 37.5593 62.9357 38.9638C64.3339 40.3683 65.1207 42.2681 65.125 44.2499C65.1287 45.2615 64.9259 46.2632 64.5291 47.1937C64.1323 48.1243 63.5498 48.964 62.8172 49.6617Z" fill="#403BDD" fill-opacity="0.94"/>
<path d="M40.125 49.2499H35.125C34.9592 49.2499 34.8003 49.3158 34.6831 49.433C34.5658 49.5502 34.5 49.7092 34.5 49.8749C34.5 50.0407 34.5658 50.1997 34.6831 50.3169C34.8003 50.4341 34.9592 50.4999 35.125 50.4999H40.125C40.2908 50.4999 40.4497 50.4341 40.5669 50.3169C40.6842 50.1997 40.75 50.0407 40.75 49.8749C40.75 49.7092 40.6842 49.5502 40.5669 49.433C40.4497 49.3158 40.2908 49.2499 40.125 49.2499Z" fill="#403BDD" fill-opacity="0.94"/>
<path d="M42.625 49.2499H42C41.8343 49.2499 41.6753 49.3158 41.5581 49.433C41.4409 49.5502 41.375 49.7092 41.375 49.8749C41.375 50.0407 41.4409 50.1997 41.5581 50.3169C41.6753 50.4341 41.8343 50.4999 42 50.4999H42.625C42.7908 50.4999 42.9497 50.4341 43.067 50.3169C43.1842 50.1997 43.25 50.0407 43.25 49.8749C43.25 49.7092 43.1842 49.5502 43.067 49.433C42.9497 49.3158 42.7908 49.2499 42.625 49.2499Z" fill="#403BDD" fill-opacity="0.94"/>
</svg>
