<svg width="95" height="95" viewBox="0 0 95 95" fill="none" xmlns="http://www.w3.org/2000/svg">
<circle cx="47.5" cy="47.5" r="47.5" fill="#FEFDF7"/>
<path d="M65.75 38V39.25H28.25V38C28.25 37.337 28.5134 36.7011 28.9822 36.2322C29.4511 35.7634 30.087 35.5 30.75 35.5H63.25C63.913 35.5 64.5489 35.7634 65.0178 36.2322C65.4866 36.7011 65.75 37.337 65.75 38Z" fill="#57A4FF"/>
<path d="M63.25 34.875H30.75C29.9215 34.8759 29.1272 35.2055 28.5413 35.7913C27.9555 36.3772 27.6259 37.1715 27.625 38V58C27.6259 58.8285 27.9555 59.6228 28.5413 60.2087C29.1272 60.7945 29.9215 61.1241 30.75 61.125H63.25C64.0785 61.1241 64.8728 60.7945 65.4587 60.2087C66.0445 59.6228 66.3741 58.8285 66.375 58V38C66.3741 37.1715 66.0445 36.3772 65.4587 35.7913C64.8728 35.2055 64.0785 34.8759 63.25 34.875ZM28.875 38C28.8756 37.5029 29.0733 37.0263 29.4248 36.6748C29.7763 36.3233 30.2529 36.1256 30.75 36.125H63.25C63.7471 36.1256 64.2237 36.3233 64.5752 36.6748C64.9267 37.0263 65.1244 37.5029 65.125 38V38.625H28.875V38ZM65.125 58C65.1244 58.4971 64.9267 58.9737 64.5752 59.3252C64.2237 59.6767 63.7471 59.8744 63.25 59.875H30.75C30.2529 59.8744 29.7763 59.6767 29.4248 59.3252C29.0733 58.9737 28.8756 58.4971 28.875 58V39.875H65.125V58Z" fill="#403BDD"/>
<path d="M30.75 38C31.0952 38 31.375 37.7202 31.375 37.375C31.375 37.0298 31.0952 36.75 30.75 36.75C30.4048 36.75 30.125 37.0298 30.125 37.375C30.125 37.7202 30.4048 38 30.75 38Z" fill="#403BDD"/>
<path d="M32.625 38C32.9702 38 33.25 37.7202 33.25 37.375C33.25 37.0298 32.9702 36.75 32.625 36.75C32.2798 36.75 32 37.0298 32 37.375C32 37.7202 32.2798 38 32.625 38Z" fill="#403BDD"/>
<path d="M34.5 38C34.8452 38 35.125 37.7202 35.125 37.375C35.125 37.0298 34.8452 36.75 34.5 36.75C34.1548 36.75 33.875 37.0298 33.875 37.375C33.875 37.7202 34.1548 38 34.5 38Z" fill="#403BDD"/>
<path d="M55.75 58.625H60.75C60.9158 58.625 61.0747 58.5592 61.1919 58.4419C61.3092 58.3247 61.375 58.1658 61.375 58C61.375 57.8342 61.3092 57.6753 61.1919 57.5581C61.0747 57.4408 60.9158 57.375 60.75 57.375H55.75C55.5842 57.375 55.4253 57.4408 55.3081 57.5581C55.1908 57.6753 55.125 57.8342 55.125 58C55.125 58.1658 55.1908 58.3247 55.3081 58.4419C55.4253 58.5592 55.5842 58.625 55.75 58.625Z" fill="#403BDD"/>
<path d="M62.625 58.625H63.25C63.4158 58.625 63.5747 58.5592 63.6919 58.4419C63.8092 58.3247 63.875 58.1658 63.875 58C63.875 57.8342 63.8092 57.6753 63.6919 57.5581C63.5747 57.4408 63.4158 57.375 63.25 57.375H62.625C62.4592 57.375 62.3003 57.4408 62.1831 57.5581C62.0658 57.6753 62 57.8342 62 58C62 58.1658 62.0658 58.3247 62.1831 58.4419C62.3003 58.5592 62.4592 58.625 62.625 58.625Z" fill="#403BDD"/>
<path d="M44.1533 52.27C44.2912 52.3619 44.46 52.3953 44.6225 52.3628C44.7851 52.3303 44.928 52.2346 45.02 52.0967L50.02 44.5967C50.1109 44.4588 50.1435 44.2905 50.1107 44.1286C50.0779 43.9667 49.9823 43.8244 49.8449 43.7327C49.7074 43.6411 49.5393 43.6076 49.3772 43.6396C49.2152 43.6715 49.0724 43.7663 48.98 43.9033L43.98 51.4033C43.888 51.5412 43.8546 51.71 43.8871 51.8725C43.9196 52.0351 44.0154 52.178 44.1533 52.27Z" fill="#403BDD"/>
<path d="M50.9749 52.2302C51.1022 52.3363 51.2665 52.3875 51.4316 52.3725C51.5967 52.3575 51.749 52.2775 51.8551 52.1502L54.9801 48.4002C55.0737 48.2879 55.125 48.1463 55.125 48C55.125 47.8538 55.0737 47.7122 54.9801 47.5999L51.8551 43.8499C51.749 43.7225 51.5966 43.6426 51.4315 43.6276C51.2665 43.6126 51.1022 43.6638 50.9748 43.7699C50.8475 43.876 50.7675 44.0284 50.7525 44.1935C50.7375 44.3586 50.7887 44.5229 50.8948 44.6502L53.6864 48L50.8948 51.3499C50.8423 51.413 50.8027 51.4857 50.7782 51.5641C50.7538 51.6425 50.7451 51.7249 50.7525 51.8066C50.76 51.8884 50.7834 51.9679 50.8216 52.0405C50.8597 52.1132 50.9118 52.1777 50.9749 52.2302Z" fill="#403BDD"/>
<path d="M42.1449 52.1502C42.1974 52.2133 42.2619 52.2654 42.3346 52.3035C42.4073 52.3416 42.4867 52.3651 42.5685 52.3725C42.6502 52.38 42.7326 52.3712 42.811 52.3468C42.8894 52.3224 42.9622 52.2828 43.0252 52.2302C43.0883 52.1777 43.1404 52.1132 43.1785 52.0405C43.2166 51.9679 43.2401 51.8884 43.2475 51.8066C43.255 51.7249 43.2462 51.6425 43.2218 51.5641C43.1974 51.4857 43.1578 51.413 43.1052 51.3499L40.3136 48.0001L43.1052 44.6502C43.2113 44.5229 43.2625 44.3586 43.2475 44.1935C43.2325 44.0284 43.1526 43.876 43.0252 43.7699C42.8979 43.6638 42.7336 43.6126 42.5685 43.6276C42.4034 43.6426 42.251 43.7225 42.1449 43.8499L39.0199 47.5999C38.9263 47.7122 38.875 47.8538 38.875 48.0001C38.875 48.1463 38.9263 48.2879 39.0199 48.4002L42.1449 52.1502Z" fill="#403BDD"/>
<circle cx="47.5" cy="49.0283" r="33" stroke="#E0DFDC"/>
<circle cx="53.1887" cy="16.7925" r="3.79245" fill="#57A4FF"/>
<circle cx="29.8019" cy="75.5754" r="6.95283" fill="#403BDD"/>
</svg>
